# xmcd CD database file
#
# Track frame offsets:
#	183
#	17733
#	41133
#	60375
#	72183
#	86908
#	108245
#	128033
#	147195
#	157383
#	178758
#	193795
#
# Disc length: 2811 seconds
#
# Revision: 2
# Processed by: cddbd v1.4PL0 Copyright (c) Steve Scherf et al.
# Submitted via: CDex 1.50beta8
#
DISCID=ad0af90c
DTITLE=Henning Stærk - Tender Touch
DYEAR=1987
DGENRE=Country
TTITLE0=Rubber Heels
TTITLE1=Soul Man
TTITLE2=So Much Love (I Can't Give)
TTITLE3=Going Back To Bed With Betty
TTITLE4=Tender Care - Tender Touch
TTITLE5=Take A Look
TTITLE6=Can't Get Enough
TTITLE7=You Give Me All (I Ever Needed)
TTITLE8=Soul Feet
TTITLE9=Under My Skin
TTITLE10=One Nite Stand
TTITLE11=Fire
EXTD=YEAR: 1987
EXTT0=
EXTT1=
EXTT2=
EXTT3=
EXTT4=
EXTT5=
EXTT6=
EXTT7=
EXTT8=
EXTT9=
EXTT10=
EXTT11=
PLAYORDER=
